ModelForces
version=1
nRows=4
nColumns=155
inDegrees=no

This file contains the forces exerted on a model during a simulation.

A force is a generalized force, meaning that it can be either a force (N) or a torque (Nm).

Units are S.I. units (second, meters, Newtons, ...)
Angles are in degrees.

endheader
time	glut_med1_r	glut_med2_r	glut_med3_r	glut_min1_r	glut_min2_r	glut_min3_r	semimem_r	semiten_r	bifemlh_r	bifemsh_r	sar_r	add_long_r	add_brev_r	add_mag1_r	add_mag2_r	add_mag3_r	tfl_r	pect_r	grac_r	glut_max1_r	glut_max2_r	glut_max3_r	iliacus_r	psoas_r	quad_fem_r	gem_r	peri_r	rect_fem_r	vas_med_r	vas_int_r	vas_lat_r	med_gas_r	lat_gas_r	soleus_r	tib_post_r	flex_dig_r	flex_hal_r	tib_ant_r	per_brev_r	per_long_r	per_tert_r	ext_dig_r	ext_hal_r	glut_med1_l	glut_med2_l	glut_med3_l	glut_min1_l	glut_min2_l	glut_min3_l	semimem_l	semiten_l	bifemlh_l	bifemsh_l	sar_l	add_long_l	add_brev_l	add_mag1_l	add_mag2_l	add_mag3_l	tfl_l	pect_l	grac_l	glut_max1_l	glut_max2_l	glut_max3_l	iliacus_l	psoas_l	quad_fem_l	gem_l	peri_l	rect_fem_l	vas_med_l	vas_int_l	vas_lat_l	med_gas_l	lat_gas_l	soleus_l	tib_post_l	flex_dig_l	flex_hal_l	tib_ant_l	per_brev_l	per_long_l	per_tert_l	ext_dig_l	ext_hal_l	ercspn_r	ercspn_l	intobl_r	intobl_l	extobl_r	extobl_l	femur_lat_meniscii_r.femur_lat_r.force.X	femur_lat_meniscii_r.femur_lat_r.force.Y	femur_lat_meniscii_r.femur_lat_r.force.Z	femur_lat_meniscii_r.femur_lat_r.torque.X	femur_lat_meniscii_r.femur_lat_r.torque.Y	femur_lat_meniscii_r.femur_lat_r.torque.Z	femur_lat_meniscii_r.meniscus_lat_r.force.X	femur_lat_meniscii_r.meniscus_lat_r.force.Y	femur_lat_meniscii_r.meniscus_lat_r.force.Z	femur_lat_meniscii_r.meniscus_lat_r.torque.X	femur_lat_meniscii_r.meniscus_lat_r.torque.Y	femur_lat_meniscii_r.meniscus_lat_r.torque.Z	femur_med_meniscii_r.femur_med_r.force.X	femur_med_meniscii_r.femur_med_r.force.Y	femur_med_meniscii_r.femur_med_r.force.Z	femur_med_meniscii_r.femur_med_r.torque.X	femur_med_meniscii_r.femur_med_r.torque.Y	femur_med_meniscii_r.femur_med_r.torque.Z	femur_med_meniscii_r.meniscus_med_r.force.X	femur_med_meniscii_r.meniscus_med_r.force.Y	femur_med_meniscii_r.meniscus_med_r.force.Z	femur_med_meniscii_r.meniscus_med_r.torque.X	femur_med_meniscii_r.meniscus_med_r.torque.Y	femur_med_meniscii_r.meniscus_med_r.torque.Z	femur_med_tibia_r.tibia_upper_r.force.X	femur_med_tibia_r.tibia_upper_r.force.Y	femur_med_tibia_r.tibia_upper_r.force.Z	femur_med_tibia_r.tibia_upper_r.torque.X	femur_med_tibia_r.tibia_upper_r.torque.Y	femur_med_tibia_r.tibia_upper_r.torque.Z	femur_med_tibia_r.femur_med_r.force.X	femur_med_tibia_r.femur_med_r.force.Y	femur_med_tibia_r.femur_med_r.force.Z	femur_med_tibia_r.femur_med_r.torque.X	femur_med_tibia_r.femur_med_r.torque.Y	femur_med_tibia_r.femur_med_r.torque.Z	femur_lat_tibia_r.tibia_upper_r.force.X	femur_lat_tibia_r.tibia_upper_r.force.Y	femur_lat_tibia_r.tibia_upper_r.force.Z	femur_lat_tibia_r.tibia_upper_r.torque.X	femur_lat_tibia_r.tibia_upper_r.torque.Y	femur_lat_tibia_r.tibia_upper_r.torque.Z	femur_lat_tibia_r.femur_lat_r.force.X	femur_lat_tibia_r.femur_lat_r.force.Y	femur_lat_tibia_r.femur_lat_r.force.Z	femur_lat_tibia_r.femur_lat_r.torque.X	femur_lat_tibia_r.femur_lat_r.torque.Y	femur_lat_tibia_r.femur_lat_r.torque.Z	aACL_R	pACL_R	aPCL_R	pPCL_R	aMCL_R	mMCL_R	pMCL_R	aLCL_R	mLCL_R	pLCL_R	aPCL_L	pPCL_L	aMCL_L	aLCL_L
      0.00000000	     37.35678167	     44.71148582	    157.49636656	     12.86043704	     14.21185329	     20.59692135	    599.05756354	    159.63466127	    472.21163103	     36.00882819	      6.22547988	     23.21348594	     21.35473561	     31.04355633	     26.30416804	     95.21851165	      0.00000000	      8.17745321	      8.57144548	     27.14408703	     40.82250329	     74.24660586	     25.51924633	     23.78553469	    196.08639903	     40.64708191	     83.68713551	     11.24867161	     32.47449261	     33.07778270	     40.77186739	     67.48690598	     31.69931831	    152.72720615	     92.44658902	     14.93332009	     15.26895791	     41.82851940	     21.62523106	     46.40594865	      8.86060096	     25.04818486	      7.96045570	     37.48087652	     28.28714471	     30.25598133	     13.28977762	     14.47626353	     15.91713841	     42.06683902	     20.39635155	     37.67631238	     36.01822118	      7.59254209	     27.93927808	     20.68957741	     14.51222487	     12.16230296	     19.66717628	     12.58139899	     11.16605282	      7.78214370	     18.12681708	     27.55933735	     20.56469162	     63.94906620	     55.74758807	     18.09791099	      9.16719286	     20.03897647	     52.59637061	     32.48786114	     37.22481259	     39.87514307	     67.71424671	     31.64857027	    152.72720615	     92.44658902	     14.93332009	     15.26895791	     41.82851940	     21.62523106	     46.40594865	      8.86060096	     25.04818486	      7.96045570	    124.99446086	    124.99446086	     44.97041513	     44.97041513	     60.98287244	     60.98287244	    -21.57778605	     10.79313173	      0.58543435	     -0.27807930	     -0.79844578	      4.50282251	     21.57778605	    -10.79313173	     -0.58543435	      0.33422827	      0.68609707	     -0.36202548	     -9.98414446	     -3.49763628	     -0.64189172	     -0.07708605	      0.44869095	     -1.23302340	      9.98414446	      3.49763628	      0.64189172	      0.05921307	     -0.14918567	     -0.12096530	      0.00000000	      0.00000000	      0.00000000	      0.00000000	      0.00000000	      0.00000000	      0.00000000	      0.00000000	      0.00000000	      0.00000000	      0.00000000	      0.00000000	      0.00000000	      0.00000000	      0.00000000	      0.00000000	      0.00000000	      0.00000000	      0.00000000	      0.00000000	      0.00000000	      0.00000000	      0.00000000	      0.00000000	     26.23636035	     57.15717797	      0.00000000	      0.00000000	      0.00000000	      3.83340630	     46.40137098	      0.67560592	      0.00000000	      1.56026721	      0.00000000	      0.00000000	      0.00000001	      0.00000000
      0.00100000	     37.34661433	     44.68771490	    157.44379535	     12.84059297	     14.20054390	     20.59141896	    587.00976833	    160.78239094	    466.73095936	     37.86490871	      9.20304071	     23.20139074	     21.30713899	     31.02858425	     26.29510790	     95.20353883	      0.00000000	      8.16714902	     10.29539733	     27.13221502	     40.80464750	     74.22397997	     25.50635249	     23.77737048	    196.02879869	     40.63994001	     83.68126931	      9.31241995	     24.49906474	     25.20870369	     31.94236997	     62.42240837	     29.36401454	    145.25011932	     91.56970132	     14.92914916	     15.19732378	     43.96750129	     21.46212318	     46.09468862	      9.50149536	     25.62075833	      8.16589510	     37.47068608	     28.27022932	     30.24086714	     13.26950867	     14.46480712	     15.91260065	     42.06228881	     20.39020965	     37.67123261	     35.98888344	      7.57882260	     27.92554748	     20.64313666	     14.50364319	     12.15716021	     19.66293667	     12.58033419	     11.15324218	      7.77413879	     18.11779344	     27.54583488	     20.55620729	     63.92578024	     55.73415570	     18.08271668	      9.16509816	     20.03713766	     52.58867645	     32.47668845	     37.21372981	     39.86386325	     67.70976811	     31.64643975	    152.71327822	     92.44307771	     14.93481584	     15.27019563	     41.82127614	     21.62263156	     46.40335095	      8.85785788	     25.04193096	      7.95792407	    124.81723588	    124.81723588	     44.95337082	     44.95337082	     60.96445217	     60.96445217	    -52.39516057	      5.83128806	      8.20991551	     -0.16967002	     -4.80133297	      2.33150867	     52.39516057	     -5.83128806	     -8.20991551	      0.19417284	      1.91409426	     -0.12440317	    -29.32042633	     -2.90092736	      5.21016330	      0.08075987	     -1.68643638	     -0.50238837	     29.32042633	      2.90092736	     -5.21016330	     -0.09961851	     -0.16634488	     -0.63533549	      0.00000000	      0.00000000	      0.00000000	      0.00000000	      0.00000000	      0.00000000	      0.00000000	      0.00000000	      0.00000000	      0.00000000	      0.00000000	      0.00000000	      0.00000000	      0.00000000	      0.00000000	      0.00000000	      0.00000000	      0.00000000	      0.00000000	      0.00000000	      0.00000000	      0.00000000	      0.00000000	      0.00000000	    -65.53184229	    -40.80285900	      0.00000000	      0.00000000	      0.00000000	   -158.84721769	   -117.51775030	   -195.62624875	      0.00000000	   -198.24019086	      0.00000000	      0.00000000	      0.00000001	      0.00000000
      0.00193046	     37.31910487	     44.62646575	    157.32325154	     12.79226099	     14.17122078	     20.57662599	    568.47003055	    162.05918211	    459.23099802	     42.27747157	     13.95412786	     23.16932109	     21.19786778	     30.98988958	     26.27115401	     95.16476555	      0.00000000	      8.14144587	     13.49554455	     27.10051928	     40.75697339	     74.16613673	     25.47212360	     23.75541192	    195.92679185	     40.62204985	     83.66552937	      6.12293751	     12.89058450	     13.47544632	     18.25583545	     53.31535857	     25.21319150	    130.69949302	     89.72176623	     14.94224264	     15.07115402	     48.54123831	     21.15894390	     45.48331406	     10.89290504	     26.78143707	      8.57514530	     37.44311342	     28.22565423	     30.20071767	     13.22006424	     14.43513337	     15.90033495	     42.04981599	     20.37362884	     37.65733656	     35.91293620	      7.54615279	     27.88905195	     20.53666967	     14.48101931	     12.14341543	     19.65141397	     12.57741197	     11.12098490	      7.75378080	     18.09382315	     27.50994378	     20.53351249	     63.86365262	     55.69773842	     18.04346507	      9.15942521	     20.03208977	     52.56764688	     32.44663825	     37.18380971	     39.83337627	     67.69744846	     31.64057948	    152.67504134	     92.43340664	     14.93884977	     15.27351794	     41.80152129	     21.61551093	     46.39619845	      8.85046231	     25.02495194	      7.95106760	    124.38096271	    124.38096271	     44.90764659	     44.90764659	     60.91522240	     60.91522240	   -108.81190283	      4.22656588	     28.21771762	     -0.16557598	    -14.66814422	      1.58287030	    108.81190283	     -4.22656588	    -28.21771762	      0.16696922	      4.37156427	     -0.03523362	    -76.07236701	      0.20941136	     24.10434504	      0.56419912	     -8.79401634	      1.78461385	     76.07236701	     -0.20941136	    -24.10434504	     -0.58044473	     -0.08812888	     -1.75871896	    161.80075271	      1.28711831	      6.48221228	      0.10378575	     -1.57013166	     -2.53061446	   -161.80075271	     -1.28711831	     -6.48221228	     -0.10572677	      4.89311077	      1.91924766	      0.00000000	      0.00000000	      0.00000000	      0.00000000	      0.00000000	      0.00000000	      0.00000000	      0.00000000	      0.00000000	      0.00000000	      0.00000000	      0.00000000	   -103.43035202	    -87.04590990	      0.00000000	      0.00000000	      0.00000000	   -212.03179716	   -173.41031345	   -259.96352193	      0.00000000	   -264.48998468	      0.00000000	      0.00000000	      0.00000001	      0.00000000
      0.00273588	     37.28151630	     44.54681685	    157.18263506	     12.73274801	     14.13285831	     20.55654537	    560.58758205	    166.19243581	    458.77176643	     51.83641274	     19.40123046	     23.12640533	     21.07034887	     30.93941862	     26.23918846	     95.11408033	      0.00000000	      8.10906749	     17.82767220	     27.05780445	     40.69272155	     74.09148370	     25.42625857	     23.72559054	    195.82841945	     40.59941070	     83.64420281	      4.10733227	      6.66535077	      6.87623902	     10.11246395	     46.72808277	     22.26778179	    118.10199294	     87.89288715	     14.98385136	     14.98270913	     52.89217072	     20.95344762	     44.98499054	     12.21063771	     27.81993253	      8.92461564	     37.40543752	     28.16637801	     30.14688798	     13.15909208	     14.39635177	     15.88359238	     42.03253915	     20.35102584	     37.63812946	     35.81373152	      7.50675730	     27.84009137	     20.41257610	     14.45091991	     12.12487127	     19.63559536	     12.57335925	     11.07998162	      7.72765172	     18.06168421	     27.46178997	     20.50286675	     63.77997878	     55.64787321	     17.99230082	      9.15166600	     20.02508685	     52.53860680	     32.40582853	     37.14301939	     39.79176274	     67.68032063	     31.63243260	    152.62199211	     92.41994309	     14.94433301	     15.27800960	     41.77430271	     21.60565512	     46.38624457	      8.84039425	     25.00168724	      7.94169760	    123.83834005	    123.83834005	     44.84572042	     44.84572042	     60.84880099	     60.84880099	   -150.74614281	     21.60570882	     51.49029789	     -0.56808450	    -25.54853791	      9.08044515	    150.74614281	    -21.60570882	    -51.49029789	      0.64062648	      6.51115474	     -0.87984041	   -132.08468264	     12.41719262	     50.39485991	      1.16985580	    -18.69859041	      7.57435082	    132.08468264	    -12.41719262	    -50.39485991	     -1.14266774	     -0.01134552	     -2.89300029	   1382.49848714	    -50.96617585	     44.33638300	      0.13614840	    -13.50100678	    -23.58512473	  -1382.49848714	     50.96617585	    -44.33638300	      0.15056414	     37.48370559	     42.21377112	      0.00000000	      0.00000000	      0.00000000	      0.00000000	      0.00000000	      0.00000000	      0.00000000	      0.00000000	      0.00000000	      0.00000000	      0.00000000	      0.00000000	    -77.72819279	    -67.01385284	      0.00000000	      0.00000000	      0.00000000	   -157.26066977	   -121.22183325	   -199.80426328	      0.00000000	   -204.21644063	      0.00000000	      0.00000000	      0.00000001	      0.00000000
